<svg width="16" height="20" viewBox="0 0 16 20" fill="none" xmlns="http://www.w3.org/2000/svg">
<path fill-rule="evenodd" clip-rule="evenodd" d="M15.2 7.94325C15.2 13.5035 8 18.2695 8 18.2695C8 18.2695 0.800003 13.5035 0.800003 7.94325C0.800003 6.04723 1.55857 4.22887 2.90883 2.88819C4.2591 1.5475 6.09044 0.794312 8 0.794312C9.90956 0.794312 11.7409 1.5475 13.0912 2.88819C14.4414 4.22887 15.2 6.04723 15.2 7.94325Z" stroke="#656565" stroke-width="1.5" stroke-linecap="round" stroke-linejoin="round"/>
<path d="M8.00001 10.3263C9.32549 10.3263 10.4 9.25936 10.4 7.94328C10.4 6.6272 9.32549 5.5603 8.00001 5.5603C6.67452 5.5603 5.60001 6.6272 5.60001 7.94328C5.60001 9.25936 6.67452 10.3263 8.00001 10.3263Z" stroke="#656565" stroke-width="1.5" stroke-linecap="round" stroke-linejoin="round"/>
</svg>
